<?xml version="1.0" encoding="UTF-8"?>
<svg id="Layer_1" data-name="Layer 1" xmlns="http://www.w3.org/2000/svg" version="1.1" viewBox="0 0 720 720">
  <defs>
    <style>
      .cls-1, .cls-2 {
        fill: #1f1f1f;
      }

      .cls-1, .cls-3, .cls-4 {
        stroke-width: 0px;
      }

      .cls-2 {
        stroke: #231f20;
        stroke-miterlimit: 10;
      }

      .cls-3 {
        fill: #fff;
      }

      .cls-4 {
        fill: #3b7a57;
      }
    </style>
  </defs>
  <rect class="cls-1" x="73.78" y="502.25" width="578.92" height="140.14"/>
  <path class="cls-2" d="M480.26,256.51l-23.31,13.08-70.64-56.01-34.78,27.56-18.28-9.1-57.53,44.24-26.94-12.04-138.37,97.87h505.66l-135.81-105.6ZM402.36,261.95l-49.23,58.6,12.22-36.84-22.39,12.31-16.59-16.41-72.78,56.73,9.01-17.84-15.43-12.58-79.41,34.34,82.29-58.51,27.35,12.84,56.61-43.53,18.55,9.04,33.74-26.79,69.21,54.53,23.99-12.43,75.99,58.96-73.05-37.73,10.79,26.94-90.89-61.63Z"/>
  <g>
    <path class="cls-1" d="M369.43,103.08c7.02,0,12.74-5.71,12.74-12.74s-5.71-12.74-12.74-12.74-12.74,5.71-12.74,12.74,5.71,12.74,12.74,12.74Z"/>
    <path class="cls-1" d="M413.04,132.68l1.59-13.36c.08-.69-.11-1.37-.54-1.91-.43-.54-1.04-.89-1.73-.97-.69-.08-1.37.11-1.91.54-.54.43-.89,1.04-.97,1.73l-1.41,11.84c-.45.02-.89.08-1.3.19l-21.29,2.76-11.18-19.9c-.47-1.07-1.09-2.1-1.84-3.07l-.24-.39-.06.02c-2.74-3.29-6.74-5.17-11.02-5.17-6.32,0-11.82,4.04-13.71,10.11l-7.24,26.33c-.03.11-2.85,11.41-3.9,17.81l.22.05-.22-.04.37.08-.37-.06c-.2,1.23-.33,2.22-.39,2.95-.35,4.94-5.36,70.8-5.42,71.47l-.03.42,16.23,5.1,7.88-61.05,13.85,11.48s2.49,2.43,3.05,6.35c.59,4.1,2.95,26.39,2.97,26.61l.06.53,12.32-1.31,3.58-5.29-2.42-30.75c-.05-.16-1.13-3.95-3.56-6.75-2.21-2.54-15.44-17.25-17.18-19.18l5.08-21.43,4.14,4.16c.47.62,1.87,1.56,2.52,1.97,1.29.81,3.78,1.33,5.37,1.06l22.19-2.19-10.77,90.23c-.08.69.11,1.37.54,1.91.43.54,1.04.89,1.73.97,1.42.16,2.71-.85,2.88-2.27l11-92.13c1.72-1.19,2.74-3.13,2.74-5.23,0-1.57-.57-3.06-1.61-4.23Z"/>
  </g>
  <path class="cls-4" d="M346.02,94.51l-9.19-2.35c-5.06-1.29-10.13,1.45-11.33,6.13l-2.88,11.24c-.43,1.7.31,3.44,1.73,4.48l-3.23,12.63-3.64-.93c-1.55-.4-3.09.44-3.46,1.87l-5.81,22.72c-.37,1.43.59,2.91,2.14,3.3l3.64.93c-.77,3.01,1.24,6.12,4.5,6.95l13.04,3.33c3.25.83,6.52-.93,7.28-3.94l11.34-44.32,1.73-6.77,1.14-4.47c1.2-4.68-1.94-9.52-7-10.82Z"/>
  <g>
    <path class="cls-1" d="M85.35,449.88l15.41-5.63c1.96,6.9,8.97,11.04,17.6,11.04,7.48,0,14.38-2.53,14.38-9.32,0-5.29-3.91-7.71-13.46-9.66l-9.55-1.96c-14.38-2.88-22.54-9.78-22.54-21.39,0-14.61,14.15-23.46,31.51-23.46,12.19,0,24.15,4.83,28.98,16.33l-15.41,5.64c-2.19-5.29-7.82-8.28-14.95-8.28-7.71,0-13.11,2.99-13.11,8.28,0,4.25,3.22,6.9,9.32,8.17l10.35,2.19c14.72,2.99,25.88,7.71,25.88,22.2,0,16.1-15.07,25.07-31.86,25.07s-27.95-6.9-32.55-19.21Z"/>
    <path class="cls-1" d="M160.21,445.28v-34.62h16.22v30.48c0,8.28.46,15.18,9.32,15.18,7.59,0,10.81-4.6,10.81-15.41v-30.25h16.33v57.04h-13.92l-2.42-8.05c-3.34,5.64-7.94,9.43-16.79,9.43-14.95,0-19.55-8.74-19.55-23.81Z"/>
    <path class="cls-1" d="M227.03,410.66h13.92l2.3,8.05c3.68-6.33,11.04-9.55,17.6-9.55,14.49,0,25.07,11.5,25.07,30.02s-10.58,29.9-25.07,29.9c-6.56,0-13.92-3.33-17.6-9.66v26.91h-16.22v-75.67ZM268.89,439.19c0-10.93-5.87-17.25-13.11-17.25s-13.23,4.95-13.23,17.02,5.87,17.37,13.23,17.37,13.11-5.98,13.11-17.14Z"/>
    <path class="cls-1" d="M293.95,438.96c0-18.17,13.69-29.79,30.13-29.79,18.75,0,30.25,14.61,28.87,34.27h-42.9c1.61,9.32,8.05,12.88,14.26,12.88,5.64,0,9.55-1.84,11.85-4.49l13.23,4.72c-5.75,8.4-15.07,12.54-24.61,12.54-18.4,0-30.82-11.62-30.82-30.13ZM324.54,421.47c-6.79,0-12.88,3.11-14.61,11.85h27.72c-.46-7.36-5.87-11.85-13.11-11.85Z"/>
    <path class="cls-1" d="M363.18,410.66h12.77l3.11,10.47c3.57-8.86,9.78-12.31,18.63-11.96v16.33c-12.42-1.26-18.29,2.99-18.29,14.15v28.06h-16.22v-57.04Z"/>
    <path class="cls-1" d="M402.97,452.41c0-13.46,15.18-18.75,38.53-20.47v-1.73c0-6.67-3.68-9.89-10.58-9.89-5.17,0-9.2,2.42-10.35,7.13l-13.8-4.83c3.56-7.82,12.54-13.46,24.96-13.46,16.33,0,25.3,6.67,25.3,23.69v12.65c0,7.82.92,17.14,1.96,22.2h-15.07l-2.07-7.02c-4.14,5.87-10.7,8.4-19.09,8.4-10.93,0-19.78-6.33-19.78-16.68ZM441.5,444.25v-2.3c-13.69.92-21.62,3.34-21.62,9.32,0,3.91,3.57,6.55,8.74,6.55,7.36,0,12.88-3.11,12.88-13.57Z"/>
    <path class="cls-1" d="M487.73,459.89l-2.19,7.82h-14.03v-81.42h16.22v32.43c3.68-6.33,11.04-9.55,17.6-9.55,14.49,0,25.07,11.04,25.07,29.67s-10.58,30.25-25.07,30.25c-6.56,0-13.92-2.99-17.6-9.2ZM513.38,438.84c0-10.93-5.87-16.91-13.11-16.91s-13.23,5.29-13.23,17.14,5.87,17.25,13.23,17.25,13.11-6.44,13.11-17.48Z"/>
    <path class="cls-1" d="M541.09,451.95v-65.67h16.22v61.64c0,5.29,1.61,6.44,7.47,6.44h4.72v13.34h-10.35c-13.57,0-18.06-2.65-18.06-15.76Z"/>
    <path class="cls-1" d="M574.78,438.96c0-18.17,13.69-29.79,30.13-29.79,18.75,0,30.25,14.61,28.87,34.27h-42.9c1.61,9.32,8.05,12.88,14.26,12.88,5.64,0,9.55-1.84,11.85-4.49l13.23,4.72c-5.75,8.4-15.07,12.54-24.61,12.54-18.4,0-30.82-11.62-30.82-30.13ZM605.37,421.47c-6.79,0-12.88,3.11-14.61,11.85h27.72c-.46-7.36-5.87-11.85-13.11-11.85Z"/>
  </g>
  <g>
    <path class="cls-3" d="M124.2,533.03h17.02v61.87h37.61v14.95h-54.63v-76.82Z"/>
    <path class="cls-3" d="M184.92,581.1c0-18.17,13.69-29.79,30.13-29.79,18.75,0,30.25,14.61,28.87,34.27h-42.9c1.61,9.32,8.05,12.88,14.26,12.88,5.64,0,9.55-1.84,11.85-4.49l13.23,4.72c-5.75,8.4-15.07,12.54-24.61,12.54-18.4,0-30.82-11.62-30.82-30.13ZM215.52,563.62c-6.79,0-12.88,3.11-14.61,11.85h27.72c-.46-7.36-5.87-11.85-13.11-11.85Z"/>
    <path class="cls-3" d="M250.47,594.55c0-13.46,15.18-18.75,38.53-20.47v-1.73c0-6.67-3.68-9.89-10.58-9.89-5.18,0-9.2,2.42-10.35,7.13l-13.8-4.83c3.57-7.82,12.54-13.46,24.96-13.46,16.33,0,25.3,6.67,25.3,23.69v12.65c0,7.82.92,17.14,1.96,22.2h-15.07l-2.07-7.02c-4.14,5.87-10.7,8.4-19.09,8.4-10.93,0-19.78-6.33-19.78-16.68ZM289,586.39v-2.3c-13.69.92-21.62,3.34-21.62,9.32,0,3.91,3.56,6.55,8.74,6.55,7.36,0,12.88-3.11,12.88-13.57Z"/>
    <path class="cls-3" d="M319.01,552.81h12.77l3.1,10.47c3.57-8.86,9.78-12.31,18.63-11.96v16.33c-12.42-1.26-18.29,2.99-18.29,14.15v28.06h-16.22v-57.04Z"/>
    <path class="cls-3" d="M364.78,552.81h14.03l2.19,7.71c2.64-4.37,8.86-9.2,17.71-9.2,14.61,0,19.21,8.51,19.21,23.58v34.96h-16.22v-30.82c0-8.17-.58-14.95-9.43-14.95-7.59,0-11.27,5.52-11.27,16.22v29.56h-16.22v-57.04Z"/>
    <path class="cls-3" d="M436.2,565.11h-9.32v-12.31h25.65v57.04h-16.33v-44.74ZM433.55,533.25c0-5.41,4.37-9.78,9.89-9.78s9.78,4.37,9.78,9.78-4.37,9.89-9.78,9.89-9.89-4.37-9.89-9.89Z"/>
    <path class="cls-3" d="M466.9,552.81h14.03l2.19,7.71c2.64-4.37,8.86-9.2,17.71-9.2,14.61,0,19.21,8.51,19.21,23.58v34.96h-16.22v-30.82c0-8.17-.58-14.95-9.43-14.95-7.59,0-11.27,5.52-11.27,16.22v29.56h-16.22v-57.04Z"/>
    <path class="cls-3" d="M536.25,619.97l13.34-5.63c2.07,3.68,5.87,6.21,12.08,6.21s11.85-2.76,11.85-11.73v-10.01c-4.71,6.1-11.27,9.09-18.06,9.09-12.54,0-24.61-10.24-24.61-27.83,0-19.55,12.08-28.87,24.04-28.87,7.59,0,14.38,3.45,18.63,9.66l2.3-8.05h13.8v53.36c0,18.98-11.27,26.8-28.41,26.8-9.43,0-20.01-3.11-24.96-13ZM574.08,579.72c0-11.62-5.98-15.64-13.11-15.64s-13.11,4.83-13.11,15.3,5.87,15.87,13.11,15.87,13.11-3.79,13.11-15.53Z"/>
  </g>
</svg>